HIERARCHY
ROOT Hips
{
	OFFSET -14.64140 90.27770 -84.91600
	CHANNELS 6 Xposition Yposition Zposition Zrotation Xrotation Yrotation
	JOINT Spine
	{
		OFFSET 0.00000 13.20850 -1.60436
		CHANNELS 3 Zrotation Xrotation Yrotation
		JOINT Spine1
		{
			OFFSET 0.00000 8.61716 0.00000
			CHANNELS 3 Zrotation Xrotation Yrotation
			JOINT Spine2
			{
				OFFSET 0.00000 8.61717 0.00000
				CHANNELS 3 Zrotation Xrotation Yrotation
				JOINT Spine3
				{
					OFFSET 0.00000 8.61717 0.00000
					CHANNELS 3 Zrotation Xrotation Yrotation
					JOINT Neck
					{
						OFFSET 0.00000 11.07920 1.10792
						CHANNELS 3 Zrotation Xrotation Yrotation
						JOINT Neck1
						{
							OFFSET 0.00000 7.08032 0.00000
							CHANNELS 3 Zrotation Xrotation Yrotation
							JOINT Head
							{
								OFFSET 0.00000 7.08031 0.00000
								CHANNELS 3 Zrotation Xrotation Yrotation
								End site
								{
									OFFSET 0.00000 0.00000 0.00000
								}
							}
						}
					}
					JOINT RightShoulder
					{
						OFFSET -0.01000 7.91373 5.19711
						CHANNELS 3 Zrotation Xrotation Yrotation
						JOINT RightArm
						{
							OFFSET -18.41580 0.00000 0.00000
							CHANNELS 3 Zrotation Xrotation Yrotation
							JOINT RightForeArm
							{
								OFFSET -29.11090 0.00000 0.00000
								CHANNELS 3 Zrotation Xrotation Yrotation
								JOINT RightHand
								{
									OFFSET -24.65040 0.00000 0.00000
									CHANNELS 3 Zrotation Xrotation Yrotation
									JOINT RightHandThumb1
									{
										OFFSET -5.35114 -0.85590 3.97906
										CHANNELS 3 Zrotation Xrotation Yrotation
										JOINT RightHandThumb2
										{
											OFFSET -4.52789 0.00000 0.00000
											CHANNELS 3 Zrotation Xrotation Yrotation
											JOINT RightHandThumb3
											{
												OFFSET -2.46976 0.00000 0.00000
												CHANNELS 3 Zrotation Xrotation Yrotation
												End site
												{
													OFFSET 0.00000 0.00000 0.00000
												}
											}
										}
									}
									JOINT RightHandIndex1
									{
										OFFSET -14.26970 0.00000 2.88139
										CHANNELS 3 Zrotation Xrotation Yrotation
										JOINT RightHandIndex2
										{
											OFFSET -5.48836 0.00000 0.00000
											CHANNELS 3 Zrotation Xrotation Yrotation
											JOINT RightHandIndex3
											{
												OFFSET -3.01859 0.00000 0.00000
												CHANNELS 3 Zrotation Xrotation Yrotation
												End site
												{
													OFFSET 0.00000 0.00000 0.00000
												}
											}
										}
									}
									JOINT RightHandMiddle1
									{
										OFFSET -14.26970 0.00000 -0.09147
										CHANNELS 3 Zrotation Xrotation Yrotation
										JOINT RightHandMiddle2
										{
											OFFSET -6.17441 0.00000 0.00000
											CHANNELS 3 Zrotation Xrotation Yrotation
											JOINT RightHandMiddle3
											{
												OFFSET -3.56743 0.00000 0.00000
												CHANNELS 3 Zrotation Xrotation Yrotation
												End site
												{
													OFFSET 0.00000 0.00000 0.00000
												}
											}
										}
									}
									JOINT RightHandRing1
									{
										OFFSET -12.69180 0.00000 -3.06433
										CHANNELS 3 Zrotation Xrotation Yrotation
										JOINT RightHandRing2
										{
											OFFSET -5.62556 0.00000 0.00000
											CHANNELS 3 Zrotation Xrotation Yrotation
											JOINT RightHandRing3
											{
												OFFSET -3.56744 0.00000 0.00000
												CHANNELS 3 Zrotation Xrotation Yrotation
												End site
												{
													OFFSET 0.00000 0.00000 0.00000
												}
											}
										}
									}
									JOINT RightHandPinky1
									{
										OFFSET -11.11390 0.00000 -6.03719
										CHANNELS 3 Zrotation Xrotation Yrotation
										JOINT RightHandPinky2
										{
											OFFSET -4.52789 0.00000 0.00000
											CHANNELS 3 Zrotation Xrotation Yrotation
											JOINT RightHandPinky3
											{
												OFFSET -2.46976 0.00000 0.00000
												CHANNELS 3 Zrotation Xrotation Yrotation
												End site
												{
													OFFSET 0.00000 0.00000 0.00000
												}
											}
										}
									}
								}
							}
						}
					}
					JOINT LeftShoulder
					{
						OFFSET 0.01000 7.91373 5.19711
						CHANNELS 3 Zrotation Xrotation Yrotation
						JOINT LeftArm
						{
							OFFSET 18.41580 0.00000 0.00000
							CHANNELS 3 Zrotation Xrotation Yrotation
							JOINT LeftForeArm
							{
								OFFSET 29.11090 0.00000 0.00000
								CHANNELS 3 Zrotation Xrotation Yrotation
								JOINT LeftHand
								{
									OFFSET 24.65040 0.00000 0.00000
									CHANNELS 3 Zrotation Xrotation Yrotation
									JOINT LeftHandThumb1
									{
										OFFSET 5.35114 -0.85590 3.97906
										CHANNELS 3 Zrotation Xrotation Yrotation
										JOINT LeftHandThumb2
										{
											OFFSET 4.52789 0.00000 0.00000
											CHANNELS 3 Zrotation Xrotation Yrotation
											JOINT LeftHandThumb3
											{
												OFFSET 2.46977 0.00000 0.00000
												CHANNELS 3 Zrotation Xrotation Yrotation
												End site
												{
													OFFSET 0.00000 0.00000 0.00000
												}
											}
										}
									}
									JOINT LeftHandIndex1
									{
										OFFSET 14.26970 0.00000 2.88139
										CHANNELS 3 Zrotation Xrotation Yrotation
										JOINT LeftHandIndex2
										{
											OFFSET 5.48836 0.00000 0.00000
											CHANNELS 3 Zrotation Xrotation Yrotation
											JOINT LeftHandIndex3
											{
												OFFSET 3.01859 0.00000 0.00000
												CHANNELS 3 Zrotation Xrotation Yrotation
												End site
												{
													OFFSET 0.00000 0.00000 0.00000
												}
											}
										}
									}
									JOINT LeftHandMiddle1
									{
										OFFSET 14.26970 0.00000 -0.09147
										CHANNELS 3 Zrotation Xrotation Yrotation
										JOINT LeftHandMiddle2
										{
											OFFSET 6.17440 0.00000 0.00000
											CHANNELS 3 Zrotation Xrotation Yrotation
											JOINT LeftHandMiddle3
											{
												OFFSET 3.56744 0.00000 0.00000
												CHANNELS 3 Zrotation Xrotation Yrotation
												End site
												{
													OFFSET 0.00000 0.00000 0.00000
												}
											}
										}
									}
									JOINT LeftHandRing1
									{
										OFFSET 12.69180 0.00000 -3.06433
										CHANNELS 3 Zrotation Xrotation Yrotation
										JOINT LeftHandRing2
										{
											OFFSET 5.62556 0.00000 0.00000
											CHANNELS 3 Zrotation Xrotation Yrotation
											JOINT LeftHandRing3
											{
												OFFSET 3.56744 0.00000 0.00000
												CHANNELS 3 Zrotation Xrotation Yrotation
												End site
												{
													OFFSET 0.00000 0.00000 0.00000
												}
											}
										}
									}
									JOINT LeftHandPinky1
									{
										OFFSET 11.11390 0.00000 -6.03719
										CHANNELS 3 Zrotation Xrotation Yrotation
										JOINT LeftHandPinky2
										{
											OFFSET 4.52789 0.00000 0.00000
											CHANNELS 3 Zrotation Xrotation Yrotation
											JOINT LeftHandPinky3
											{
												OFFSET 2.46976 0.00000 0.00000
												CHANNELS 3 Zrotation Xrotation Yrotation
												End site
												{
													OFFSET 0.00000 0.00000 0.00000
												}
											}
										}
									}
								}
							}
						}
					}
					JOINT pCube4
					{
						OFFSET 0.00000 10.91090 1.10792
						CHANNELS 3 Zrotation Xrotation Yrotation
						End site
						{
							OFFSET 0.00000 0.00000 0.00000
						}
					}
				}
			}
		}
	}
	JOINT RightUpLeg
	{
		OFFSET -9.98441 0.00000 0.00000
		CHANNELS 3 Zrotation Xrotation Yrotation
		JOINT RightLeg
		{
			OFFSET 0.00000 -42.11790 0.00000
			CHANNELS 3 Zrotation Xrotation Yrotation
			JOINT RightFoot
			{
				OFFSET 0.00000 -45.00020 -0.00001
				CHANNELS 3 Zrotation Xrotation Yrotation
				JOINT RightForeFoot
				{
					OFFSET 0.00000 -3.74820 0.00000
					CHANNELS 3 Zrotation Xrotation Yrotation
					JOINT RightToeBase
					{
						OFFSET 0.00000 0.06325 14.43120
						CHANNELS 3 Zrotation Xrotation Yrotation
						End site
						{
							OFFSET 0.00000 0.00000 0.00000
						}
					}
				}
			}
		}
	}
	JOINT LeftUpLeg
	{
		OFFSET 9.98441 0.00000 0.00000
		CHANNELS 3 Zrotation Xrotation Yrotation
		JOINT LeftLeg
		{
			OFFSET 0.00000 -42.11800 0.00000
			CHANNELS 3 Zrotation Xrotation Yrotation
			JOINT LeftFoot
			{
				OFFSET 0.00000 -45.00070 0.00000
				CHANNELS 3 Zrotation Xrotation Yrotation
				JOINT LeftForeFoot
				{
					OFFSET 0.00000 -3.74824 0.00000
					CHANNELS 3 Zrotation Xrotation Yrotation
					JOINT LeftToeBase
					{
						OFFSET 0.00000 0.06325 14.43110
						CHANNELS 3 Zrotation Xrotation Yrotation
						End site
						{
							OFFSET 0.00000 0.00000 0.00000
						}
					}
				}
			}
		}
	}
}
MOTION
Frames: 4
Frame Time: 0.050000
-0.003250743146660977 -0.002598039559228691 0.03779409119564222 -0.0375513928511893 0.022296177488698332 0.005131606732518994 -2.8296943177961 0.49565336705776136 -0.773522482546846 -0.982101144949195 3.5568507366409756 0.34852071366003173 -0.9097324058144906 -2.0502291285573584 -2.5381171942128047 -0.8617954603306169 0.28518520314198537 -0.9501582402904922 -2.2240838955347657 12.309746719514845 6.03877801069733 -0.11371835637524742 0.10198711571172048 13.472408131216387 -1.8866497641021043 -14.545557944857276 1.1715608485059064 -2.7337725777022013 1.4080744900162105 -13.443692918595156 69.9019405655527 28.834025842678713 0.30392620186155017 8.102143168119154 -0.9532107666287151 84.40142455135936 17.91427628232153 -0.4898016307112757 -3.9515189125150156 4.556097237435408 -0.1012062885896804 -1.5919721621687446 0.03686227915059444 0.015890858030152596 -56.221894419251655 -0.043756416233347695 -0.031021174148526367 -56.19513934829846 -38.746741978898285 -0.04062487371798898 -0.020646582152489348 -0.047351658823832465 0.045874168909291954 0.03632189761340381 0.0053828239377286 0.02671737529998817 -0.03981250274533257 -36.71869868277477 -0.005101668967640395 0.03220887261117753 0.030496275039463915 0.03775942487629404 0.004074830697551469 0.04775140863117567 -0.024986938697080407 0.006955428746664544 -19.746529980920464 -0.0014953725517684424 -0.04506566754202293 0.0378684366531583 -0.020153368263941977 -0.0026232821778225677 -0.03180533409908401 -0.043592664969024905 0.024376270011537308 24.024900238582518 0.006132944171147773 -0.04570804601047667 28.87538114363393 0.008406118080055036 -0.03881107927749889 28.821287844649447 0.015344334733617434 0.04465147300873898 9.861059495857202 2.0663551963422915 12.394557385883436 -69.03458435579172 15.847270579324706 -23.041853675687165 -20.3939589338168 -12.336900799167818 -77.7382590415608 -6.002891932587298 -2.9382146767158592 0.21748556665462684 -0.47202488987872215 0.018880351839259575 -8.092880173435677 0.024168048151991944 0.023796072693900765 44.56621062462872 0.0007324657247933888 -0.008052347506364212 44.607717757561254 12.432521280652365 -0.03302981245244919 -0.02080546118753147 -0.03892032556605155 0.024148755980399082 -0.02109977382289804 -0.008719282038992538 -0.005848406148619748 -0.014766524619357065 11.073731993976118 0.03510613359538979 -0.012630365414797845 -0.014042663368978208 -0.020976209447555773 -0.01322849299627375 0.03290088404217622 -0.025137504694630143 -0.009591540173590466 4.745827695439659 -0.013627581772445272 0.018571361628356146 0.035234614129104766 0.041439352851666944 -0.03494292321045491 -0.006771357312219618 -0.014351780398460157 -0.02510829608455927 -5.566847590885098 0.018135505448189374 -0.001373380747203213 -6.705354689650698 0.024178740127053837 0.049670628650875605 -6.695872884065294 0.014422105722921685 -0.01010006789731773 -0.007919495833758358 0.01908060741031663 -0.009593475823192745 8.069139517732083 3.496685328418144 -19.244215443461446 0.03020953854447627 10.358054512953103 -0.0015987115611414103 -5.63810721619561 -15.657245531757216 3.1593064358479763 0.006446582553253698 -0.04259943894212568 -0.0025797638860712746 -0.022469411904864185 4.661493141234794 -0.009496022869804074 12.46549155170182 -8.211989851989284 6.884858774314669 -0.02041956575487885 46.341287715295216 0.04756399730657898 -4.287861724302267 -14.71134558183214 -3.828488058053766 0.02195610507517209 0.03867435799997521 0.025064248393448924 0.021120144058294966 -10.744611627754734 -0.005287782504950616 
0.00862180083666563 -0.02913784590601445 0.007276499106674116 0.010694448551462924 -0.013908910632283986 0.002744875982379701 -2.762440147499851 0.4737189670737416 -0.745428721183693 -1.0282584526756773 3.5106689563140145 0.34771581980395094 -0.8727146454072827 -2.0398596762598364 -2.7077333961880736 -0.8248211268873414 0.2915921218251705 -1.0029644471833055 -2.2723616382763807 12.326174306534467 5.952262121202835 -0.08391697816136989 0.08176881569048552 13.278984386548029 -1.9511088209439391 -14.598112800782511 1.164877951757158 -2.816296874898885 1.4369480710074136 -13.345920773032404 69.83668701010446 28.35403560424252 0.7262376324045883 8.988304597330874 -0.5742450837536953 83.41416942480062 18.051515118033002 -0.45314580278586886 -4.0887088317187565 4.5009652194091565 -0.15391010842353803 -1.5594824263197433 -0.031814790529607985 0.02635347036517521 -56.22720331464582 0.014205858233353718 0.01593724388707812 -56.274811437606346 -38.814102374164186 -0.027830098934471803 -0.043034165166628856 0.004328049853717033 0.04331861877510091 0.019138945670374906 -0.004323341953506128 0.019810313112215868 -0.015066218689263475 -36.68757905226907 -0.020443444894804805 0.01643949193537015 -0.014927514194032428 -0.03208066026654791 0.029047078916833367 0.04084396189052374 -0.030955603109756553 -0.0033856701669426805 -19.75525863461861 -0.02894122669998933 0.010078854536598337 0.044588466541657344 -0.030945011723171115 -0.028560143427154374 0.04929661344007134 0.0009196252079387229 -0.040011123140872074 24.05387620990919 -0.004036502584165548 0.04429244916701971 28.83122604059389 -0.025417423227455528 -0.008086486963590336 28.839919915395885 0.006176208696582468 0.04308224521982021 9.971467664221828 2.1696837064619707 12.217560426517284 -68.2409513728321 15.51780655028223 -24.65349253528771 -17.19168295810135 -13.252602232874525 -76.98432853826446 -5.785775224163268 -2.847507696132597 0.52829895644029 -0.4664089555991222 0.07611179152843937 -8.162569862072933 -0.04153568509293908 -0.02191545894445048 44.59251994365158 0.0210242407981589 -0.03120428066752654 44.519895929683855 12.495690909063347 -0.0312971470901098 -0.045950500509916045 -0.012517545702381682 -0.03567262317074105 0.019397594266678777 -0.012968611328992343 0.03171688682000066 -0.013627978892467146 11.103737798947863 0.04357100974254238 0.009077787382570174 -0.0007682877271143711 -0.045299352301283645 0.009478563658204832 -0.014983302858871898 -0.009168191249393626 0.0305218947678412 4.785867166274857 -0.027419452025051583 -0.03841278272119788 -0.00014013236244672962 0.0021403620896777564 0.002672864219382508 0.010505807155809161 0.014029493196361808 0.038754722026970806 -5.6263976337743955 0.037575525806380086 -0.004703065762277863 -6.7544788679927805 0.005718580780721519 -0.031297809007190855 -6.736362248827952 -0.0012542396939927102 0.04768338347696367 0.0235717822069566 -0.033245906007907604 -0.033838820732400327 7.999183212382605 3.465559183625805 -19.198556738557077 -0.04452992194157427 10.37252899840821 -0.013734835656450253 -5.5730533378179175 -15.659680408819096 3.1861561037089525 -0.01352014726908411 0.013694815376376453 -0.04617147174115927 -0.020250985910845207 4.733812206920099 0.008281000437683409 12.438776662638578 -8.26879316658837 6.8667268750294905 -0.04572687694213382 46.425221508963915 0.037557441907793566 -4.300516156862149 -14.746683277487053 -3.850974738612033 0.018396610677831614 -0.0030733320649162727 0.04655890551601797 -0.026192474624167145 -10.753681557055064 0.012172566876731437 
0.008480457132088738 -0.018322002657995114 -0.0207761925758942 -0.026471692799453456 -0.001989727994037949 0.024119485711588545 -2.6280698359277643 0.5804180145597034 -0.7541899792090099 -0.9641625387484333 3.444455786034605 0.3154388810825256 -0.903185799298488 -1.9894157626639042 -2.8551132212238555 -0.7466979630742232 0.30202758326288315 -1.017642754462023 -2.231958567458117 12.242594442670377 5.77192345860677 -0.1286565067885675 0.05975813254152537 13.006945427484906 -1.8948720733947362 -14.706304935534822 1.0932904172454323 -2.814299887810284 1.4170668771901562 -13.18648669609094 69.60869529070307 28.035490988479005 1.4912403887120564 10.799679556968268 -0.19018901549381736 83.1123375637974 18.603198078458686 -0.4216481339435427 -4.347035844479849 4.522204654440597 -0.09887712465460968 -1.5502646638466149 0.014059259227615844 -0.03149635120909636 -56.22360123380019 0.0023353964807625795 0.002597732274268459 -56.231177635806915 -38.732051656183266 0.03961349922064175 0.01585957276083487 -0.037215290091379555 0.014650981723742974 -0.011606255525201779 -0.02054825721128824 0.016783875456982365 -0.021259723398843494 -36.686644720719165 0.039294966591567906 0.039788126851236276 0.031002851393513213 0.017847770925525704 0.01823553875016684 0.028528508888315797 -0.03642063557116782 -0.03200347574319338 -19.76080656763968 -0.013906265014728357 -0.04864807930994771 0.01634938801001847 -0.0022642007916123027 0.006839269572923625 0.029314006124753263 0.04539750543728319 0.008352267155611916 24.052418836732045 0.04799053620436605 -0.017240958927311922 28.870836522869723 -0.001200608341279799 0.033595247877284226 28.822550813055617 0.020555366608123314 0.006294245438676408 10.125981159833415 2.1532208893147535 11.955966354585597 -67.27485061572307 15.366994817824963 -26.283480119604484 -15.637417454636479 -13.67580171376975 -75.83361337310386 -6.261125680555314 -2.8607389395651004 1.0928626408111637 -0.49518681406149273 0.11661771999046489 -8.150912515847153 -0.046882689233628705 0.02078951747378926 44.557391954579785 0.018300813178201925 -0.02340951597504044 44.545239068285596 12.434650872939999 -0.008965233427866447 0.04002169627830775 -0.021792607769344666 0.023001901723042707 0.023469513279917326 0.02137731537101464 -0.03067893720465496 0.00019495655260998043 11.087084184868603 -0.02002206626299452 -0.019035692123067004 0.021063109374005046 -0.00932641087165676 0.013369155794802096 -0.03932501218313384 -0.004007755180829638 0.00752641719584724 4.7721143874961465 0.00906515834183047 0.029864807038579032 -0.013460065413958205 -0.021348262283706638 0.049882596167781984 -0.019802696726572054 0.02690412594024609 -0.014035723902528227 -5.626154277844404 -0.010530556073095212 -0.002282857696613335 -6.769392430562898 -0.047532813022861775 -0.04823999443393874 -6.705069360660964 -0.03562158632389875 -0.030706093638885962 0.03259912621858278 -0.034254869810045746 0.027079062926887415 8.057264102719525 3.5295011794271898 -19.2106782489674 0.02061653094434671 10.396826938215863 -0.021368382341716483 -5.590838790639884 -15.693479846042699 3.169814548053308 0.02084892257747512 0.04865338675722799 -0.008144634043926399 0.017891029283844857 4.703779108796007 -0.03712961703570448 12.41500056781765 -8.224556422226408 6.891773818699444 0.02194521552164014 46.41691245517707 -0.03985768173859579 -4.3094645846414075 -14.764783733554165 -3.8605503401631607 -0.016546070787332744 0.026712570381248364 -0.030749946982623108 -0.01134714552620063 -10.77661944644969 -0.03433366063154698 
0.0007982500458139953 -0.020024652632816588 0.041706869255910245 0.004338967714098869 -0.015292162538026153 0.04277581886836725 -2.642373110316226 0.6254816930023358 -0.8405778958547354 -1.0257631272730574 3.4981508721143464 0.3556496674878192 -0.8683254377402333 -2.0011118640984424 -2.986880729371052 -0.6427650177926775 0.31972665461212424 -1.0485899440254873 -2.2389596315497458 12.176403486658472 5.554607992069851 -0.15493054342024512 0.06782809972342792 12.642646107540363 -1.8929785557827767 -14.741356524411485 1.0453415522743938 -2.9145020673405226 1.5110995640601634 -13.146166679876716 69.30520907191988 27.40162041353719 1.9106212280796526 11.804364926148484 0.11624719798441616 81.85054423820397 18.911213455933378 -0.4109345832141081 -4.573865207202613 4.549222241414969 -0.1716571295376824 -1.5629176840137053 -0.002154370485894071 -0.010694345251375215 -56.189984691404845 0.03984417538969509 -0.01143315427122765 -56.27513751758545 -38.73667791309254 -0.02577521220953102 0.015936786753400937 -0.03264993079140119 0.03714046079603995 -0.038892659795709335 0.0013187384576062238 -0.02449194785860469 0.01235266412853896 -36.67124901014606 0.02379754439745915 0.016021172838709054 0.009383281056775578 0.006560265996616555 -0.013017340050284173 -0.021555158993548186 -0.03204928157003266 -0.017076531010393952 -19.740341555683383 -0.04575821917367118 0.011324686818545437 -0.024393703078534196 -0.016211561009554287 -0.0061327792071141415 -0.012802444805898264 -0.022634433364812905 0.010672577758192152 24.047054630120876 -0.04268950458964321 -0.003667919009251317 28.912239840168027 0.045341261740484855 0.016111363497346362 28.8622480525305 -0.03248906262594825 0.01960188129930216 10.177473076123334 2.220322597016281 11.751142450061227 -66.28778860625707 15.320779258686205 -27.400210001038587 -13.871744209541276 -14.244640294745441 -73.78691326966765 -6.85280783633324 -3.038685219138589 1.9066257637971191 -0.487472208029894 0.03436110010525046 -8.110612127701758 0.002781274536309818 0.0364715214907412 44.53169433888371 -0.032482442031751116 -0.0008511407120200823 44.591234054620195 12.49459137381729 -0.023827514930101556 -0.04436904339624478 -0.026289178387865927 0.010317612271292393 0.010116789015398472 0.03241966025807971 0.023787637847091984 0.01104337201757518 11.111713308559308 0.044546335951813745 0.010829418989412254 -0.027787572588555194 0.026803676523996546 -0.03163809667266488 -0.009674426093086223 0.033968891438296685 -0.018619452990597966 4.750800988523206 0.0022550006295317315 -0.04646631467618886 -0.0389566220569418 0.026646769922501673 0.00020824242372058548 0.017142049033394318 0.015448085879754802 -0.018288771199793576 -5.6172139623064865 0.009303497631282362 0.022051122467 -6.7282678940045635 -0.021114153820726626 -0.04676389197480224 -6.713804475882611 0.006363095555877574 0.03899435248946671 -0.0195011198590017 0.002971138797277388 -0.03547406151854206 8.082536101275442 3.503185789617987 -19.218408490082034 0.014747363509958004 10.376932077740905 0.057121127018470635 -5.581345543170603 -15.655746871982437 3.2340505356332203 -0.015204882682750337 -0.00517820794814281 0.034765300683799995 -0.027515990335919522 4.663708760034354 -0.01810073315882545 12.42808055185866 -8.273372881525 6.888360823851901 0.033106561206345544 46.41361062592853 0.031614115251099355 -4.325772995352896 -14.779439037878447 -3.8770823725214143 -0.045513178709979396 -0.04455084203644434 0.0441355200698552 0.03684587822760269 -10.74413859604358 0.0036506474369567897 
